<?xml version="1.0" standalone="no"?>
<!DOCTYPE svg PUBLIC "-//W3C//DTD SVG 20010904//EN"
 "http://www.w3.org/TR/2001/REC-SVG-20010904/DTD/svg10.dtd">
<svg version="1.0" xmlns="http://www.w3.org/2000/svg"
 width="1080.000000pt" height="1080.000000pt" viewBox="0 0 1080.000000 1080.000000"
 preserveAspectRatio="xMidYMid meet">
<metadata>
Created by potrace 1.14, written by Peter Selinger 2001-2017
</metadata>
<g transform="translate(0.000000,1080.000000) scale(0.100000,-0.100000)"
fill="#000000" stroke="none">
<path d="M1955 7752 c-61 -1 -112 -8 -132 -17 -21 -10 -65 -15 -140 -15 -64 0
-113 -4 -120 -11 -6 -6 -55 -13 -109 -16 -58 -4 -107 -12 -119 -19 -11 -8 -31
-14 -45 -14 -14 0 -38 -9 -55 -20 -16 -11 -42 -20 -56 -20 -15 0 -40 -7 -55
-15 -16 -8 -36 -15 -45 -15 -9 0 -22 -7 -29 -15 -7 -8 -20 -15 -30 -15 -9 0
-28 -8 -41 -18 -13 -10 -42 -27 -64 -37 -51 -25 -83 -51 -170 -135 -85 -82
-111 -112 -150 -170 -16 -25 -36 -51 -42 -58 -7 -7 -13 -21 -13 -30 0 -9 -13
-43 -29 -76 -17 -34 -32 -82 -36 -108 -3 -25 -13 -52 -20 -58 -10 -8 -15 -31
-15 -65 0 -29 -7 -72 -15 -95 -21 -59 -21 -306 0 -374 8 -27 15 -70 15 -95 0
-26 7 -56 15 -68 8 -11 17 -40 21 -64 5 -41 17 -74 50 -142 8 -16 14 -34 14
-41 0 -6 15 -34 32 -62 18 -28 38 -58 43 -67 41 -66 83 -116 175 -207 128
-129 190 -179 257 -209 12 -6 41 -23 65 -38 65 -42 82 -52 98 -58 99 -39 96
-55 -42 -189 -136 -132 -218 -224 -218 -245 0 -9 -14 -29 -29 -44 -16 -16 -35
-42 -41 -58 -7 -16 -16 -29 -20 -29 -4 0 -19 -24 -34 -52 -15 -29 -36 -66 -47
-83 -18 -29 -31 -54 -43 -85 -4 -8 -15 -28 -26 -45 -11 -16 -24 -41 -30 -55
-5 -14 -14 -32 -20 -40 -5 -8 -20 -35 -32 -60 -13 -25 -37 -66 -55 -92 -18
-26 -33 -53 -33 -58 0 -11 -23 -54 -68 -130 -12 -19 -33 -60 -48 -90 -15 -30
-29 -57 -33 -60 -11 -9 -51 -69 -51 -77 0 -5 -16 -32 -35 -62 -19 -29 -35 -64
-35 -78 0 -22 150 -335 189 -393 9 -14 23 -38 31 -55 8 -16 28 -51 43 -77 l29
-48 128 0 128 0 85 128 c46 70 90 138 97 152 7 14 16 27 19 30 3 3 14 21 25
40 22 42 59 110 90 165 32 58 103 191 182 340 37 72 92 175 121 230 29 55 67
127 84 160 16 33 55 105 85 160 30 55 59 112 65 128 6 15 15 27 19 27 4 0 13
12 19 28 7 15 17 36 24 47 106 171 204 275 273 290 16 4 47 13 69 21 31 11 89
14 265 12 l225 -3 3 -694 c2 -601 0 -698 -13 -724 -8 -16 -15 -35 -15 -41 0
-23 -52 -87 -88 -109 -20 -13 -71 -34 -112 -46 -41 -13 -90 -29 -107 -37 l-33
-14 0 -102 1 -103 40 -42 40 -43 687 0 687 0 41 38 c34 31 43 47 54 99 14 69
7 145 -16 168 -9 8 -30 15 -48 15 -40 0 -159 36 -202 62 -37 22 -78 71 -89
108 -4 14 -13 31 -19 39 -8 10 -11 187 -12 621 0 334 -4 615 -8 626 -8 20 -29
102 -47 189 -6 27 -17 62 -25 77 -8 15 -14 38 -14 51 0 14 -7 41 -15 60 -8 20
-15 49 -15 64 0 15 -7 41 -15 56 -8 15 -19 49 -24 75 -24 109 -39 171 -46 183
-5 7 -14 40 -22 73 -24 104 -41 170 -51 201 -16 46 -39 136 -46 177 -4 20 -13
50 -21 65 -8 15 -15 40 -15 54 0 15 -7 43 -15 62 -8 20 -15 49 -15 64 0 15 -7
41 -15 56 -8 15 -19 49 -24 75 -23 105 -39 171 -45 181 -4 6 -20 62 -35 123
-16 62 -33 124 -39 138 -5 14 -17 50 -25 80 -33 115 -39 130 -48 135 -5 4 -9
16 -9 28 0 12 -7 31 -15 41 -8 11 -15 25 -15 32 0 20 -76 129 -108 156 -16 13
-45 30 -63 37 -19 7 -47 19 -62 27 -16 8 -37 14 -47 14 -35 0 -42 24 -38 140
3 99 5 113 24 128 33 26 37 49 10 56 -23 6 -246 5 -461 -2z m605 -462 c6 -9
10 -361 10 -903 0 -836 -1 -888 -17 -895 -24 -10 -358 -9 -518 1 -71 5 -147
15 -168 23 -20 8 -51 14 -68 14 -17 0 -43 6 -57 14 -15 8 -49 25 -77 38 -151
70 -273 196 -343 358 -13 30 -28 63 -33 73 -27 50 -51 210 -56 367 -4 140 -2
184 16 290 12 68 28 138 36 155 7 16 23 53 36 80 39 90 161 226 241 270 128
71 180 88 398 125 25 4 168 7 318 6 231 -1 274 -3 282 -16z"/>
<path d="M8673 7753 c-30 -6 -29 -13 7 -58 30 -38 31 -40 28 -143 l-3 -104
-91 -42 c-51 -22 -103 -50 -115 -61 -79 -66 -148 -179 -213 -345 -10 -25 -24
-58 -32 -75 -8 -16 -17 -45 -20 -63 -4 -18 -11 -35 -15 -38 -5 -3 -9 -12 -9
-21 0 -9 -8 -35 -18 -57 -10 -23 -27 -68 -36 -101 -10 -33 -26 -80 -36 -105
-10 -25 -25 -72 -35 -105 -9 -33 -26 -78 -36 -101 -10 -23 -19 -47 -19 -54 0
-14 -27 -101 -46 -145 -7 -16 -22 -61 -34 -100 -12 -38 -27 -83 -35 -100 -7
-16 -23 -64 -35 -105 -12 -41 -26 -84 -32 -95 -7 -11 -15 -36 -19 -55 -8 -41
-26 -93 -45 -135 -12 -25 -13 -68 -4 -255 12 -273 13 -1457 1 -1591 -16 -175
-70 -236 -256 -289 -114 -32 -115 -34 -115 -150 l0 -96 40 -39 41 -40 714 -3
715 -2 40 36 c67 61 83 95 78 171 -4 71 -23 98 -77 109 -245 50 -318 100 -369
255 -22 65 -22 69 -20 810 l3 744 355 3 c343 3 356 2 397 -18 59 -29 123 -107
151 -182 13 -35 30 -79 37 -98 7 -19 24 -80 37 -135 l23 -100 177 -3 178 -2
45 41 45 42 0 686 0 686 -45 43 -44 42 -168 0 c-92 0 -173 -4 -180 -8 -6 -4
-21 -52 -33 -107 -12 -55 -28 -113 -36 -128 -8 -16 -14 -36 -14 -45 -2 -53
-96 -205 -135 -218 -11 -3 -28 -14 -39 -23 -16 -14 -62 -16 -373 -19 -263 -3
-358 0 -369 9 -12 10 -14 129 -14 813 0 610 3 805 12 814 9 9 136 12 508 12
528 0 548 -2 659 -51 123 -54 220 -217 335 -561 34 -103 22 -98 225 -98 161 1
178 2 200 21 23 19 24 21 12 97 -58 361 -227 977 -283 1025 -19 16 -70 17
-782 16 -418 -1 -771 -4 -783 -6z"/>
</g>
</svg>
